# xmcd
#
# Track frame offsets: 
#        182
#        15537
#        30960
#        45195
#        60600
#        77287
#        92122
#        107910
#        123157
#        136385
#        152050
#        166330
#        181315
#        195685
#        210552
#        224322
#        235570
#        249575
#        263762
#        278637
#        293727
#        307490
#
# Disc length: 4279 seconds
#
# Revision: 1
# Processed by: cddbd v1.5.2PL0 Copyright (c) Steve Scherf et al.
# Submitted via: ExactAudioCopy v1.3
#
DISCID=2510b516
DTITLE=Oscar Rabin - Two In Love
DYEAR=1995
DGENRE=British Dance Bands
TTITLE0=Diane, Oscar Rabin - No Souvenirs
TTITLE1=Bob Dale, Oscar Rabin - I Understand
TTITLE2=Diane, Oscar Rabin - Moonlight Avenue
TTITLE3=Ken Beaumont, Oscar Rabin - I'd Know You Anywhere
TTITLE4=Beryl Davis, Bob Dale, Diane, Oscar Rabin - I Ain't Got Nobody
TTITLE5=Alan Dean, Beryl Davis, Oscar Rabin - Deep In The Heart Of Tex
TTITLE5=as
TTITLE6=Diane, Oscar Rabin - Sometimes
TTITLE7=Alan Dean, Oscar Rabin - You Again
TTITLE8=Beryl Davis, Oscar Rabin - Tica-Ti, Tica-Ta
TTITLE9=Alan Dean, Oscar Rabin - Angeline
TTITLE10=At The Woodchoppers' Ball
TTITLE11=Diane, Oscar Rabin - Bluebirds In The Moonlight
TTITLE12=Gerry Gowan, Oscar Rabin - I Fall In Love With You Every Day
TTITLE13=Beryl Davis, Billly Nichols, Oscar Rabin - My Wubba Dolly
TTITLE14=Bob Dale, Oscar Rabin - Starlight Serenade
TTITLE15=Pedigree On Pomander Walk
TTITLE16=Beryl Davis, Oscar Rabin - Daddy
TTITLE17=Ken Beaumont, Oscar Rabin - Down Argentina Way
TTITLE18=Bob Dale, Oscar Rabin - My Sister And I
TTITLE19=Bob Dale, Diane, Oscar Rabin - Two In Love
TTITLE20=Sweet Madness
TTITLE21=Gerry Gowan, Oscar Rabin - Who's Taking You Home Tonight?
EXTD=
EXTT0=
EXTT1=
EXTT2=
EXTT3=
EXTT4=
EXTT5=
EXTT6=
EXTT7=
EXTT8=
EXTT9=
EXTT10=
EXTT11=
EXTT12=
EXTT13=
EXTT14=
EXTT15=
EXTT16=
EXTT17=
EXTT18=
EXTT19=
EXTT20=
EXTT21=
PLAYORDER=
